<?xml version="1.0" standalone="no"?>
<!DOCTYPE svg PUBLIC "-//W3C//DTD SVG 20010904//EN"
 "http://www.w3.org/TR/2001/REC-SVG-20010904/DTD/svg10.dtd">
<svg version="1.0" xmlns="http://www.w3.org/2000/svg"
 width="100pt" height="100pt" viewBox="0 0 500.000000 500.000000"
 preserveAspectRatio="xMidYMid meet">

<g transform="translate(0.000000,500.000000) scale(0.100000,-0.100000)"
fill="#FFFFFF" stroke="none">
<path d="M2230 3762 c-228 -58 -417 -107 -419 -108 -2 -2 12 -34 32 -71 19
-37 49 -103 66 -145 37 -93 126 -380 145 -469 14 -63 14 -63 15 -20 2 98 -47
362 -100 534 -17 55 -28 101 -25 104 12 12 369 79 656 123 113 18 126 18 141
4 17 -15 17 -14 10 12 -7 27 -11 29 -52 26 -23 -2 -100 -14 -169 -27 -69 -13
-217 -40 -330 -60 -113 -20 -227 -40 -254 -46 -51 -10 -81 0 -60 21 20 20 698
190 757 190 14 0 31 -8 37 -17 10 -16 11 -16 5 2 -4 11 -10 28 -12 38 -3 9
-10 17 -17 16 -6 -1 -198 -49 -426 -107z"/>
<path d="M2332 3550 c-90 -16 -170 -34 -178 -41 -18 -15 -18 -33 1 -49 12 -10
52 -6 208 19 198 34 231 46 211 79 -16 25 -61 24 -242 -8z"/>
<path d="M2600 3497 c0 -5 25 -45 56 -89 l56 -79 24 22 24 23 44 -43 c147
-144 146 -390 -3 -523 -81 -73 -223 -128 -331 -128 -33 0 -131 19 -175 34 -11
3 3 -5 31 -19 93 -46 214 -57 319 -30 261 68 384 320 271 556 -27 57 -91 130
-141 160 -27 17 -31 17 -47 2 -10 -9 -20 -14 -21 -12 -15 18 -67 99 -67 103 0
3 34 6 75 6 74 0 75 0 64 -21 -9 -18 -8 -24 4 -30 8 -5 38 -27 66 -49 109 -86
182 -212 202 -346 34 -224 -79 -405 -324 -525 -75 -36 -106 -45 -242 -68 -55
-9 -51 -10 50 -7 129 4 208 26 303 83 289 176 345 502 133 771 -37 47 -117
118 -159 141 -14 8 -14 11 2 36 10 15 16 28 14 30 -8 8 -228 9 -228 2z"/>
<path d="M2450 3385 c-312 -50 -322 -53 -300 -94 13 -25 -8 -26 255 17 152 26
160 28 163 51 4 23 -12 42 -33 39 -5 0 -44 -6 -85 -13z"/>
<path d="M2455 3206 c-33 -7 -109 -21 -170 -30 -144 -23 -160 -32 -131 -71 13
-18 19 -17 207 14 107 18 198 36 202 41 5 4 7 18 5 31 -4 29 -29 33 -113 15z"/>
<path d="M2455 3033 c-36 -5 -251 -42 -281 -48 -28 -6 -39 -34 -21 -53 15 -14
78 -8 307 33 109 19 110 20 110 50 0 23 -3 25 -42 24 -24 -1 -56 -4 -73 -6z"/>
<path d="M4093 2210 c-42 -17 -42 -94 0 -109 24 -9 67 3 79 22 31 49 -23 109
-79 87z"/>
<path d="M3860 2060 c0 -81 -4 -140 -9 -140 -6 0 -16 9 -24 20 -39 56 -173 79
-255 44 -107 -44 -161 -169 -133 -306 16 -77 59 -133 124 -164 93 -43 196 -28
265 38 l32 32 0 -47 0 -47 50 0 50 0 0 355 0 355 -50 0 -50 0 0 -140z m-80
-162 c52 -36 71 -69 77 -134 4 -49 0 -67 -19 -103 -34 -67 -67 -86 -143 -86
-69 0 -99 15 -139 69 -30 40 -30 162 0 203 37 49 81 73 139 73 38 0 61 -6 85
-22z"/>
<path d="M300 1831 l0 -341 55 0 55 0 0 105 0 105 111 0 c139 0 187 12 242 61
99 87 99 271 0 349 -60 47 -89 53 -280 58 l-183 4 0 -341z m373 215 c38 -26
57 -66 57 -121 0 -95 -84 -140 -247 -133 l-68 3 -3 139 -3 138 118 -4 c94 -3
124 -7 146 -22z"/>
<path d="M2610 2050 l0 -70 -34 0 c-19 0 -36 -5 -38 -11 -2 -7 -22 -3 -56 10
-62 25 -176 28 -225 7 -18 -7 -43 -26 -57 -41 -21 -22 -25 -36 -25 -85 1 -84
28 -110 158 -150 82 -26 107 -44 107 -79 0 -44 -28 -61 -96 -61 -42 0 -75 7
-112 25 -30 14 -55 25 -57 25 -1 0 -5 -10 -8 -22 -6 -22 -7 -22 -40 10 -29 28
-36 31 -46 18 -24 -28 -97 -49 -157 -44 -50 4 -61 10 -90 41 -67 73 -66 182 2
248 30 29 42 34 99 37 55 4 71 1 110 -21 l46 -26 29 32 c26 29 27 34 14 49
-23 25 -105 57 -166 64 -122 14 -245 -59 -277 -166 l-13 -45 -27 60 c-42 92
-108 139 -215 151 -68 8 -162 -18 -211 -59 -76 -63 -107 -193 -70 -298 22 -61
87 -125 148 -145 61 -20 187 -15 234 9 50 26 101 85 121 139 l18 49 12 -39
c19 -62 65 -117 123 -146 93 -46 243 -31 311 31 15 14 20 13 45 -5 78 -54 223
-67 295 -25 44 25 78 78 78 120 0 75 -50 119 -183 163 -83 27 -109 56 -83 95
27 41 100 41 209 -1 9 -3 19 6 27 25 14 35 30 41 30 11 0 -16 7 -20 34 -20
l34 0 4 -167 c3 -145 6 -172 22 -196 38 -56 116 -73 196 -41 22 9 40 17 40 19
0 1 -5 16 -11 33 -10 30 -12 31 -60 25 -39 -5 -53 -2 -69 12 -18 17 -20 31
-20 167 l0 148 75 0 75 0 0 35 0 35 -75 0 -75 0 0 70 0 70 -50 0 -50 0 0 -70z
m-1120 -157 c89 -51 102 -188 25 -271 -33 -36 -35 -37 -108 -37 -67 0 -79 3
-102 25 -46 43 -57 76 -53 152 3 63 7 71 39 104 54 54 134 64 199 27z"/>
<path d="M1095 1995 c-22 -8 -55 -30 -73 -50 -18 -19 -34 -35 -37 -35 -3 0 -5
20 -5 45 l0 45 -50 0 -50 0 0 -255 0 -255 50 0 50 0 0 134 c0 73 5 148 11 167
18 54 65 96 120 109 l49 12 0 49 c0 54 -3 56 -65 34z"/>
<path d="M2900 1812 c0 -175 2 -191 23 -232 53 -107 217 -122 308 -28 31 33
39 37 40 22 2 -28 5 -57 7 -71 1 -8 19 -13 47 -13 l45 0 0 255 0 255 -47 0
-48 0 0 -143 c0 -117 -3 -150 -19 -184 -35 -78 -118 -112 -190 -78 -60 28 -66
52 -66 240 l0 165 -50 0 -50 0 0 -188z"/>
<path d="M4070 1745 l0 -255 50 0 50 0 0 255 0 255 -50 0 -50 0 0 -255z"/>
<path d="M4376 1980 c-62 -24 -90 -51 -122 -117 -24 -47 -26 -62 -22 -131 7
-109 42 -167 133 -215 57 -31 193 -31 250 0 89 47 126 106 133 209 8 121 -38
206 -132 250 -65 30 -168 32 -240 4z m200 -86 c50 -34 61 -50 73 -104 28 -131
-69 -239 -194 -216 -42 8 -98 54 -115 96 -18 43 -9 149 15 183 49 66 154 86
221 41z"/>
</g>
</svg>
