<?xml version="1.0" standalone="no"?>
<!DOCTYPE svg PUBLIC "-//W3C//DTD SVG 20010904//EN"
 "http://www.w3.org/TR/2001/REC-SVG-20010904/DTD/svg10.dtd">
<svg version="1.0" xmlns="http://www.w3.org/2000/svg"
 width="100.000000pt" height="100.000000pt" viewBox="0 0 100.000000 100.000000"
 preserveAspectRatio="xMidYMid meet">

<g transform="translate(0.000000,100.000000) scale(0.100000,-0.100000)"
fill="#FFFFFF" stroke="none">
<path d="M518 743 c6 -2 18 -2 25 0 6 3 1 5 -13 5 -14 0 -19 -2 -12 -5z"/>
<path d="M373 733 c-10 -3 -10 -9 -1 -26 6 -12 17 -40 24 -62 16 -51 18 -14 2
40 -6 22 -11 43 -10 48 1 4 1 7 0 6 -2 0 -9 -3 -15 -6z"/>
<path d="M463 713 c-18 -2 -33 -9 -33 -15 0 -6 12 -8 31 -4 17 3 35 6 40 6 5
0 9 5 9 10 0 6 -3 9 -7 8 -5 0 -23 -3 -40 -5z"/>
<path d="M453 673 c-13 -2 -23 -8 -23 -11 0 -11 79 -2 86 9 5 9 -22 10 -63 2z"/>
<path d="M570 650 c26 -49 0 -95 -62 -110 l-33 -8 33 -1 c23 -1 41 7 59 25 21
21 25 32 20 65 -4 28 -2 37 6 32 7 -3 8 -2 4 2 -4 5 -14 10 -22 11 -11 2 -12
-2 -5 -16z"/>
<path d="M475 642 c-41 -5 -57 -22 -19 -21 34 1 72 14 58 20 -5 3 -22 3 -39 1z"/>
<path d="M610 594 c0 -36 -16 -62 -53 -84 -18 -11 -26 -20 -18 -20 26 0 81 66
81 99 0 17 -2 31 -5 31 -3 0 -5 -12 -5 -26z"/>
<path d="M453 603 c-13 -2 -23 -8 -23 -13 0 -11 71 -1 85 11 9 9 -21 10 -62 2z"/>
<path d="M815 439 c-10 -15 3 -25 16 -12 7 7 7 13 1 17 -6 3 -14 1 -17 -5z"/>
<path d="M60 371 c0 -41 4 -71 10 -71 6 0 10 9 10 20 0 15 7 20 29 20 16 0 36
7 45 15 21 21 22 19 18 -20 -3 -27 -1 -35 12 -35 12 0 16 10 16 35 0 22 6 38
15 41 24 9 18 22 -10 22 -14 0 -34 7 -45 17 -10 9 -37 19 -59 22 l-41 6 0 -72z
m85 29 c10 -16 -15 -40 -41 -40 -19 0 -24 5 -24 25 0 21 5 25 29 25 17 0 33
-5 36 -10z"/>
<path d="M770 416 c0 -19 -4 -22 -25 -18 -33 6 -55 -14 -55 -48 0 -36 18 -50
63 -48 l37 1 0 69 c0 39 -4 68 -10 68 -5 0 -10 -11 -10 -24z m-5 -66 c0 -18
-6 -26 -23 -28 -24 -4 -38 18 -28 44 3 9 15 14 28 12 17 -2 23 -10 23 -28z"/>
<path d="M520 415 c0 -11 -11 -15 -39 -15 -44 0 -65 -27 -36 -45 53 -32 52
-35 -15 -32 -62 2 -65 3 -65 27 0 20 5 25 25 26 14 0 26 4 28 10 5 16 -49 16
-67 -1 -16 -14 -19 -14 -31 0 -15 18 -61 20 -78 3 -15 -15 -15 -61 0 -76 17
-17 63 -15 78 3 11 14 15 14 29 1 17 -15 128 -20 151 -6 19 12 5 39 -26 51
-34 12 -20 30 18 22 23 -4 27 -11 30 -42 2 -29 8 -37 26 -39 12 -2 22 1 22 7
0 6 -7 11 -15 11 -10 0 -15 10 -15 30 0 20 5 30 15 30 8 0 15 5 15 10 0 6 -7
10 -15 10 -8 0 -15 7 -15 15 0 8 -4 15 -10 15 -5 0 -10 -7 -10 -15z m-215 -65
c0 -18 -6 -26 -23 -28 -13 -2 -25 3 -28 12 -10 26 4 48 28 44 17 -2 23 -10 23
-28z"/>
<path d="M582 353 l3 -48 43 0 42 -1 0 48 c0 57 -17 65 -22 11 -2 -30 -7 -38
-23 -38 -16 0 -21 8 -23 38 -5 55 -24 45 -20 -10z"/>
<path d="M810 350 c0 -27 5 -50 10 -50 6 0 10 23 10 50 0 28 -4 50 -10 50 -5
0 -10 -22 -10 -50z"/>
<path d="M862 388 c-15 -15 -15 -61 0 -76 15 -15 61 -15 76 0 7 7 12 24 12 38
0 33 -17 50 -50 50 -14 0 -31 -5 -38 -12z m63 -38 c0 -18 -6 -26 -23 -28 -13
-2 -25 3 -28 12 -10 26 4 48 28 44 17 -2 23 -10 23 -28z"/>
</g>
</svg>
